<?xml version="1.0" encoding="UTF-8" standalone="no"?>
<svg
   width="32"
   height="32"
   viewBox="0 0 24 24"
   fill="none"
   stroke="currentColor"
   stroke-width="2"
   stroke-linecap="round"
   stroke-linejoin="round"
   class="feather feather-bluetooth"
   version="1.1"
   id="svg1"
   sodipodi:docname="ds-bluetooth-symbolic.svg"
   inkscape:version="1.4.2 (ebf0e940d0, 2025-05-08)"
   xmlns:inkscape="http://www.inkscape.org/namespaces/inkscape"
   xmlns:sodipodi="http://sodipodi.sourceforge.net/DTD/sodipodi-0.dtd"
   xmlns="http://www.w3.org/2000/svg"
   xmlns:svg="http://www.w3.org/2000/svg">
  <defs
     id="defs1" />
  <sodipodi:namedview
     id="namedview1"
     pagecolor="#ffffff"
     bordercolor="#000000"
     borderopacity="0.25"
     inkscape:showpageshadow="2"
     inkscape:pageopacity="0.0"
     inkscape:pagecheckerboard="0"
     inkscape:deskcolor="#d1d1d1"
     inkscape:zoom="24.59375"
     inkscape:cx="15.97967"
     inkscape:cy="16"
     inkscape:window-width="1908"
     inkscape:window-height="1019"
     inkscape:window-x="0"
     inkscape:window-y="0"
     inkscape:window-maximized="0"
     inkscape:current-layer="svg1" />
  <path
     style="baseline-shift:baseline;display:inline;overflow:visible;vector-effect:none;fill:#000000;stroke:none;stroke-linecap:butt;stroke-linejoin:miter;enable-background:accumulate;stop-color:#000000;stop-opacity:1;opacity:1"
     d="M 11.617188,0.07617187 A 1.0001,1.0001 0 0 0 11,1 V 9.5859375 L 7.2070312,5.7929687 a 1,1 0 0 0 -1.4140625,0 1,1 0 0 0 0,1.4140625 L 10.585938,12 5.7929687,16.792969 a 1,1 0 0 0 0,1.414062 1,1 0 0 0 1.4140625,0 L 11,14.414063 V 23 a 1.0001,1.0001 0 0 0 1.707031,0.707031 l 5.5,-5.5 a 1.0001,1.0001 0 0 0 0,-1.414062 L 13.414063,12 18.207031,7.2070312 a 1.0001,1.0001 0 0 0 0,-1.4140625 l -5.5,-5.49999995 A 1.0001,1.0001 0 0 0 11.617188,0.07617187 Z M 13,3.4140625 16.085937,6.5 13,9.5859375 Z M 13,14.414063 16.085937,17.5 13,20.585937 Z"
     id="polyline1" />
</svg>
