<?xml version="1.0" encoding="UTF-8" standalone="no"?>
<svg
   width="32"
   height="32"
   viewBox="0 0 24 24"
   fill="none"
   stroke="currentColor"
   stroke-width="2"
   stroke-linecap="round"
   stroke-linejoin="round"
   class="feather feather-cloud-rain"
   version="1.1"
   id="svg3"
   sodipodi:docname="ds-cloud-rain-symbolic.svg"
   inkscape:version="1.4.2 (ebf0e940d0, 2025-05-08)"
   xmlns:inkscape="http://www.inkscape.org/namespaces/inkscape"
   xmlns:sodipodi="http://sodipodi.sourceforge.net/DTD/sodipodi-0.dtd"
   xmlns="http://www.w3.org/2000/svg"
   xmlns:svg="http://www.w3.org/2000/svg">
  <defs
     id="defs3" />
  <sodipodi:namedview
     id="namedview3"
     pagecolor="#ffffff"
     bordercolor="#000000"
     borderopacity="0.25"
     inkscape:showpageshadow="2"
     inkscape:pageopacity="0.0"
     inkscape:pagecheckerboard="0"
     inkscape:deskcolor="#d1d1d1"
     inkscape:zoom="24.59375"
     inkscape:cx="15.97967"
     inkscape:cy="16"
     inkscape:window-width="1908"
     inkscape:window-height="1019"
     inkscape:window-x="0"
     inkscape:window-y="0"
     inkscape:window-maximized="0"
     inkscape:current-layer="svg3" />
  <path
     style="baseline-shift:baseline;display:inline;overflow:visible;vector-effect:none;fill:#000000;stroke:none;stroke-linecap:butt;stroke-linejoin:miter;enable-background:accumulate;stop-color:#000000;stop-opacity:1;opacity:1"
     d="m 16,12 a 1,1 0 0 0 -1,1 v 8 a 1,1 0 0 0 1,1 1,1 0 0 0 1,-1 v -8 a 1,1 0 0 0 -1,-1 z"
     id="line1" />
  <path
     style="baseline-shift:baseline;display:inline;overflow:visible;vector-effect:none;fill:#000000;stroke:none;stroke-linecap:butt;stroke-linejoin:miter;enable-background:accumulate;stop-color:#000000;stop-opacity:1;opacity:1"
     d="m 8,12 a 1,1 0 0 0 -1,1 v 8 a 1,1 0 0 0 1,1 1,1 0 0 0 1,-1 V 13 A 1,1 0 0 0 8,12 Z"
     id="line2" />
  <path
     style="baseline-shift:baseline;display:inline;overflow:visible;vector-effect:none;fill:#000000;stroke:none;stroke-linecap:butt;stroke-linejoin:miter;enable-background:accumulate;stop-color:#000000;stop-opacity:1;opacity:1"
     d="m 12,14 a 1,1 0 0 0 -1,1 v 8 a 1,1 0 0 0 1,1 1,1 0 0 0 1,-1 v -8 a 1,1 0 0 0 -1,-1 z"
     id="line3" />
  <path
     style="baseline-shift:baseline;display:inline;overflow:visible;vector-effect:none;fill:#000000;stroke:none;stroke-linecap:butt;stroke-linejoin:miter;enable-background:accumulate;stop-color:#000000;stop-opacity:1;opacity:1"
     d="M 8.1777344,0.04101562 C 6.7810311,0.16205868 5.3846104,0.61445341 4.1015625,1.4453125 -1.0306289,4.7687489 -1.401605,12.214292 3.375,16.03125 A 1,1 0 0 0 4.78125,15.875 1,1 0 0 0 4.625,14.46875 C 0.86896033,11.46732 1.1538045,5.7383517 5.1894531,3.125 9.2251018,0.51164826 14.569322,2.5947642 15.771484,7.25 A 1.0001,1.0001 0 0 0 16.740234,8 H 18 c 2.248937,0.00356 3.550285,1.4578597 3.910156,3.181641 0.359984,1.724323 -0.249322,3.579676 -2.310547,4.482422 a 1,1 0 0 0 -0.515625,1.316406 1,1 0 0 0 1.316407,0.515625 c 2.896261,-1.268463 3.99316,-4.201374 3.466796,-6.722656 C 23.340824,8.2521545 21.163806,6.0037205 18.001953,6 A 1.0001,1.0001 0 0 0 18,6 H 17.414062 C 16.000888,2.0382329 12.11425,-0.30013617 8.1777344,0.04101562 Z"
     id="path3" />
</svg>
