<?xml version="1.0" encoding="UTF-8" standalone="no"?>
<svg
   width="32"
   height="32"
   viewBox="0 0 24 24"
   fill="none"
   stroke="currentColor"
   stroke-width="2"
   stroke-linecap="round"
   stroke-linejoin="round"
   class="feather feather-cloud-lightning"
   version="1.1"
   id="svg1"
   sodipodi:docname="ds-cloud-lightning-symbolic.svg"
   inkscape:version="1.4.2 (ebf0e940d0, 2025-05-08)"
   xmlns:inkscape="http://www.inkscape.org/namespaces/inkscape"
   xmlns:sodipodi="http://sodipodi.sourceforge.net/DTD/sodipodi-0.dtd"
   xmlns="http://www.w3.org/2000/svg"
   xmlns:svg="http://www.w3.org/2000/svg">
  <defs
     id="defs1" />
  <sodipodi:namedview
     id="namedview1"
     pagecolor="#ffffff"
     bordercolor="#000000"
     borderopacity="0.25"
     inkscape:showpageshadow="2"
     inkscape:pageopacity="0.0"
     inkscape:pagecheckerboard="0"
     inkscape:deskcolor="#d1d1d1"
     inkscape:zoom="24.59375"
     inkscape:cx="15.97967"
     inkscape:cy="16"
     inkscape:window-width="1908"
     inkscape:window-height="1019"
     inkscape:window-x="0"
     inkscape:window-y="0"
     inkscape:window-maximized="0"
     inkscape:current-layer="svg1" />
  <path
     style="baseline-shift:baseline;display:inline;overflow:visible;vector-effect:none;fill:#000000;stroke:none;stroke-linecap:butt;stroke-linejoin:miter;enable-background:accumulate;stop-color:#000000;stop-opacity:1;opacity:1"
     d="M 9.7949219,0.05273437 C 7.6412317,-0.15165001 5.3887667,0.40825073 3.4824219,1.8847656 -1.6011642,5.8221387 -0.99106159,13.761037 4.6347656,16.875 A 1,1 0 0 0 5.9941406,16.484375 1,1 0 0 0 5.6035156,15.125 C 1.1712584,12.671693 0.70198167,6.5688146 4.7070312,3.4667969 8.7120808,0.36477913 14.504573,2.3450478 15.771484,7.25 A 1.0001,1.0001 0 0 0 16.740234,8 H 18 a 1.0001,1.0001 0 0 0 0.002,0 c 2.53562,-0.00255 3.790522,1.6978476 3.982422,3.597656 0.1919,1.899809 -0.698683,3.81769 -3.183594,4.322266 a 1,1 0 0 0 -0.78125,1.179687 1,1 0 0 0 1.179688,0.78125 c 3.427706,-0.696016 5.053326,-3.732816 4.77539,-6.484375 C 23.696674,8.6449253 21.495703,5.9964849 17.998047,6 H 17.408203 C 16.182815,2.5668719 13.134916,0.3696986 9.7949219,0.05273437 Z"
     id="path1" />
  <path
     style="baseline-shift:baseline;display:inline;overflow:visible;vector-effect:none;fill:#000000;stroke:none;stroke-linecap:butt;stroke-linejoin:miter;enable-background:accumulate;stop-color:#000000;stop-opacity:1;opacity:1"
     d="m 13.554688,10.167969 a 1,1 0 0 0 -1.386719,0.277344 L 8.1679688,16.445312 A 1.0001,1.0001 0 0 0 9,18 h 4.130859 l -2.96289,4.445312 a 1,1 0 0 0 0.277344,1.386719 1,1 0 0 0 1.386718,-0.277344 l 4,-6 A 1.0001,1.0001 0 0 0 15,16 h -4.130859 l 2.96289,-4.445312 a 1,1 0 0 0 -0.277343,-1.386719 z"
     id="polyline1" />
</svg>
