<?xml version="1.0" encoding="UTF-8" standalone="no"?>
<svg
   width="32"
   height="32"
   viewBox="0 0 24 24"
   fill="none"
   stroke="currentColor"
   stroke-width="2"
   stroke-linecap="round"
   stroke-linejoin="round"
   class="feather feather-camera"
   version="1.1"
   id="svg1"
   sodipodi:docname="ds-camera-symbolic.svg"
   inkscape:version="1.4.2 (ebf0e940d0, 2025-05-08)"
   xmlns:inkscape="http://www.inkscape.org/namespaces/inkscape"
   xmlns:sodipodi="http://sodipodi.sourceforge.net/DTD/sodipodi-0.dtd"
   xmlns="http://www.w3.org/2000/svg"
   xmlns:svg="http://www.w3.org/2000/svg">
  <defs
     id="defs1" />
  <sodipodi:namedview
     id="namedview1"
     pagecolor="#ffffff"
     bordercolor="#000000"
     borderopacity="0.25"
     inkscape:showpageshadow="2"
     inkscape:pageopacity="0.0"
     inkscape:pagecheckerboard="0"
     inkscape:deskcolor="#d1d1d1"
     inkscape:zoom="24.59375"
     inkscape:cx="15.97967"
     inkscape:cy="16"
     inkscape:window-width="1908"
     inkscape:window-height="1019"
     inkscape:window-x="0"
     inkscape:window-y="0"
     inkscape:window-maximized="0"
     inkscape:current-layer="svg1" />
  <path
     style="baseline-shift:baseline;display:inline;overflow:visible;vector-effect:none;fill:#000000;stroke:none;stroke-linecap:butt;stroke-linejoin:miter;enable-background:accumulate;stop-color:#000000;stop-opacity:1;opacity:1"
     d="M 9,2 A 1.0001,1.0001 0 0 0 8.1679688,2.4453125 L 6.4648437,5 H 3 C 1.3549904,5 0,6.3549904 0,8 v 11 c 0,1.64501 1.3549904,3 3,3 h 18 c 1.64501,0 3,-1.35499 3,-3 V 8 C 24,6.3549904 22.64501,5 21,5 H 17.535156 L 15.832031,2.4453125 A 1.0001,1.0001 0 0 0 15,2 Z m 0.5351563,2 h 4.9296877 l 1.703125,2.5546875 A 1.0001,1.0001 0 0 0 17,7 h 4 c 0.564129,0 1,0.4358706 1,1 v 11 c 0,0.564129 -0.435871,1 -1,1 H 3 C 2.4358706,20 2,19.564129 2,19 V 8 C 2,7.4358706 2.4358706,7 3,7 H 7 A 1.0001,1.0001 0 0 0 7.8320312,6.5546875 Z"
     id="path1" />
  <path
     style="baseline-shift:baseline;display:inline;overflow:visible;vector-effect:none;fill:#000000;stroke:none;stroke-linecap:butt;stroke-linejoin:miter;enable-background:accumulate;stop-color:#000000;stop-opacity:1;opacity:1"
     d="m 12,8 c -2.7495791,0 -5,2.250421 -5,5 0,2.749579 2.2504209,5 5,5 2.749579,0 5,-2.250421 5,-5 0,-2.749579 -2.250421,-5 -5,-5 z m 0,2 c 1.668699,0 3,1.331301 3,3 0,1.668699 -1.331301,3 -3,3 -1.668699,0 -3,-1.331301 -3,-3 0,-1.668699 1.331301,-3 3,-3 z"
     id="circle1" />
</svg>
