<?xml version="1.0" encoding="UTF-8" standalone="no"?>
<svg
   width="32"
   height="32"
   viewBox="0 0 24 24"
   fill="none"
   stroke="currentColor"
   stroke-width="2"
   stroke-linecap="round"
   stroke-linejoin="round"
   class="feather feather-droplet"
   version="1.1"
   id="svg1"
   sodipodi:docname="ds-droplet-symbolic.svg"
   inkscape:version="1.4.2 (ebf0e940d0, 2025-05-08)"
   xmlns:inkscape="http://www.inkscape.org/namespaces/inkscape"
   xmlns:sodipodi="http://sodipodi.sourceforge.net/DTD/sodipodi-0.dtd"
   xmlns="http://www.w3.org/2000/svg"
   xmlns:svg="http://www.w3.org/2000/svg">
  <defs
     id="defs1" />
  <sodipodi:namedview
     id="namedview1"
     pagecolor="#ffffff"
     bordercolor="#000000"
     borderopacity="0.25"
     inkscape:showpageshadow="2"
     inkscape:pageopacity="0.0"
     inkscape:pagecheckerboard="0"
     inkscape:deskcolor="#d1d1d1"
     inkscape:zoom="24.59375"
     inkscape:cx="15.97967"
     inkscape:cy="16"
     inkscape:window-width="1908"
     inkscape:window-height="1019"
     inkscape:window-x="0"
     inkscape:window-y="0"
     inkscape:window-maximized="0"
     inkscape:current-layer="svg1" />
  <path
     style="baseline-shift:baseline;display:inline;overflow:visible;vector-effect:none;fill:#000000;stroke:none;stroke-linecap:butt;stroke-linejoin:miter;enable-background:accumulate;stop-color:#000000;stop-opacity:1;opacity:1"
     d="M 12,1.6894531 A 1.0001,1.0001 0 0 0 11.292969,1.984375 L 5.6425781,7.6425781 C 2.8361877,10.44713 2.3970528,14.330002 3.6894531,17.451172 c 1.2924004,3.12117 4.349289,5.55664 8.3164059,5.55664 3.967118,10e-7 7.022053,-2.43547 8.314453,-5.55664 1.292401,-3.12117 0.853266,-7.004042 -1.953125,-9.8085939 L 12.707031,1.9824219 A 1.0001,1.0001 0 0 0 12,1.6894531 Z m 0,2.4140625 4.953125,4.953125 c 2.236225,2.2347604 2.533251,5.1807534 1.519531,7.6289064 -1.01372,2.448152 -3.30578,4.322265 -6.466797,4.322265 -3.1610163,10e-7 -5.4550295,-1.874113 -6.4687496,-4.322265 C 4.5233892,14.237394 4.8204152,11.291401 7.0566406,9.0566406 a 1.0001,1.0001 0 0 0 0.00195,0 z"
     id="path1" />
</svg>
