<?xml version="1.0" encoding="UTF-8" standalone="no"?>
<svg
   width="32"
   height="32"
   viewBox="0 0 24 24"
   fill="none"
   stroke="currentColor"
   stroke-width="2"
   stroke-linecap="round"
   stroke-linejoin="round"
   class="feather feather-moon"
   version="1.1"
   id="svg1"
   sodipodi:docname="ds-moon-symbolic.svg"
   inkscape:version="1.4.2 (ebf0e940d0, 2025-05-08)"
   xmlns:inkscape="http://www.inkscape.org/namespaces/inkscape"
   xmlns:sodipodi="http://sodipodi.sourceforge.net/DTD/sodipodi-0.dtd"
   xmlns="http://www.w3.org/2000/svg"
   xmlns:svg="http://www.w3.org/2000/svg">
  <defs
     id="defs1" />
  <sodipodi:namedview
     id="namedview1"
     pagecolor="#ffffff"
     bordercolor="#000000"
     borderopacity="0.25"
     inkscape:showpageshadow="2"
     inkscape:pageopacity="0.0"
     inkscape:pagecheckerboard="0"
     inkscape:deskcolor="#d1d1d1"
     inkscape:zoom="24.59375"
     inkscape:cx="15.97967"
     inkscape:cy="16"
     inkscape:window-width="1908"
     inkscape:window-height="1019"
     inkscape:window-x="0"
     inkscape:window-y="0"
     inkscape:window-maximized="0"
     inkscape:current-layer="svg1" />
  <path
     style="baseline-shift:baseline;display:inline;overflow:visible;vector-effect:none;fill:#000000;stroke:none;stroke-linecap:butt;stroke-linejoin:miter;enable-background:accumulate;stop-color:#000000;stop-opacity:1;opacity:1"
     d="M 11.117188,2.0039063 C 2.7512118,2.7770293 -0.97367269,13.092734 4.9667969,19.033203 10.907266,24.973673 21.222971,21.248788 21.996094,12.882813 A 1.0001,1.0001 0 0 0 20.40625,11.986328 C 17.552325,14.09584 14.5363,13.344894 12.595703,11.404297 10.655106,9.4636996 9.9041605,6.4476746 12.013672,3.59375 A 1.0001,1.0001 0 0 0 11.117188,2.0039063 Z M 9.4101563,4.4492187 c -1.1638639,3.0813225 -0.2982032,6.2994533 1.7714847,8.3691403 2.069687,2.069688 5.287818,2.935349 8.36914,1.771485 C 17.72869,19.995668 10.738916,21.977198 6.3808594,17.619141 2.0228024,13.261084 4.0043325,6.2713099 9.4101563,4.4492187 Z"
     id="path1" />
</svg>
