<?xml version="1.0" encoding="UTF-8" standalone="no"?>
<svg
   width="32"
   height="32"
   viewBox="0 0 24 24"
   fill="none"
   stroke="currentColor"
   stroke-width="2"
   stroke-linecap="round"
   stroke-linejoin="round"
   class="feather feather-refresh-cw"
   version="1.1"
   id="svg2"
   sodipodi:docname="ds-refresh-cw-symbolic.svg"
   inkscape:version="1.4.2 (ebf0e940d0, 2025-05-08)"
   xmlns:inkscape="http://www.inkscape.org/namespaces/inkscape"
   xmlns:sodipodi="http://sodipodi.sourceforge.net/DTD/sodipodi-0.dtd"
   xmlns="http://www.w3.org/2000/svg"
   xmlns:svg="http://www.w3.org/2000/svg">
  <defs
     id="defs2" />
  <sodipodi:namedview
     id="namedview2"
     pagecolor="#ffffff"
     bordercolor="#000000"
     borderopacity="0.25"
     inkscape:showpageshadow="2"
     inkscape:pageopacity="0.0"
     inkscape:pagecheckerboard="0"
     inkscape:deskcolor="#d1d1d1"
     inkscape:zoom="24.59375"
     inkscape:cx="15.97967"
     inkscape:cy="16"
     inkscape:window-width="1908"
     inkscape:window-height="1019"
     inkscape:window-x="0"
     inkscape:window-y="0"
     inkscape:window-maximized="0"
     inkscape:current-layer="svg2" />
  <path
     style="baseline-shift:baseline;display:inline;overflow:visible;vector-effect:none;fill:#000000;stroke:none;stroke-linecap:butt;stroke-linejoin:miter;enable-background:accumulate;stop-color:#000000;stop-opacity:1;opacity:1"
     d="m 23,3 a 1,1 0 0 0 -1,1 v 5 h -5 a 1,1 0 0 0 -1,1 1,1 0 0 0 1,1 h 6 a 1.0001,1.0001 0 0 0 1,-1 V 4 A 1,1 0 0 0 23,3 Z"
     id="polyline1" />
  <path
     style="baseline-shift:baseline;display:inline;overflow:visible;vector-effect:none;fill:#000000;stroke:none;stroke-linecap:butt;stroke-linejoin:miter;enable-background:accumulate;stop-color:#000000;stop-opacity:1;opacity:1"
     d="m 1,13 a 1.0001,1.0001 0 0 0 -1,1 v 6 a 1,1 0 0 0 1,1 1,1 0 0 0 1,-1 V 15 H 7 A 1,1 0 0 0 8,14 1,1 0 0 0 7,13 Z"
     id="polyline2" />
  <path
     style="baseline-shift:baseline;display:inline;overflow:visible;vector-effect:none;fill:#000000;stroke:none;stroke-linecap:butt;stroke-linejoin:miter;enable-background:accumulate;stop-color:#000000;stop-opacity:1;opacity:1"
     d="M 12.216797,2.0234375 C 8.1357385,1.9556271 4.0915328,4.3561311 2.5664063,8.6660156 A 1,1 0 0 0 3.1757813,9.9433594 1,1 0 0 0 4.453125,9.3339844 C 6.4293235,3.749407 13.464547,2.1577605 17.652344,6.3476562 a 1.0001,1.0001 0 0 0 0.02344,0.021484 l 4.638672,4.3593754 a 1,1 0 0 0 1.414063,-0.04297 1,1 0 0 0 -0.04297,-1.4140626 L 19.066406,4.9335937 C 17.127253,2.9934684 14.665432,2.0641237 12.216797,2.0234375 Z M 0.96875,13 a 1,1 0 0 0 -0.69726562,0.314453 1,1 0 0 0 0.0429687,1.414063 l 4.61914057,4.33789 C 10.104669,24.240074 18.993391,22.2298 21.433594,15.333984 a 1,1 0 0 0 -0.609375,-1.277343 1,1 0 0 0 -1.277344,0.609375 c -1.976198,5.584577 -9.011422,7.176223 -13.1992188,2.986328 a 1.0001,1.0001 0 0 0 -0.023437,-0.02148 L 1.6855469,13.271484 A 1,1 0 0 0 0.96875,13 Z"
     id="path2" />
</svg>
