<?xml version="1.0" encoding="UTF-8" standalone="no"?>
<svg
   width="32"
   height="32"
   viewBox="0 0 24 24"
   fill="none"
   stroke="currentColor"
   stroke-width="2"
   stroke-linecap="round"
   stroke-linejoin="round"
   class="feather feather-settings"
   version="1.1"
   id="svg1"
   sodipodi:docname="ds-settings-symbolic.svg"
   inkscape:version="1.4.2 (ebf0e940d0, 2025-05-08)"
   xmlns:inkscape="http://www.inkscape.org/namespaces/inkscape"
   xmlns:sodipodi="http://sodipodi.sourceforge.net/DTD/sodipodi-0.dtd"
   xmlns="http://www.w3.org/2000/svg"
   xmlns:svg="http://www.w3.org/2000/svg">
  <defs
     id="defs1" />
  <sodipodi:namedview
     id="namedview1"
     pagecolor="#ffffff"
     bordercolor="#000000"
     borderopacity="0.25"
     inkscape:showpageshadow="2"
     inkscape:pageopacity="0.0"
     inkscape:pagecheckerboard="0"
     inkscape:deskcolor="#d1d1d1"
     inkscape:zoom="24.59375"
     inkscape:cx="15.97967"
     inkscape:cy="16"
     inkscape:window-width="1908"
     inkscape:window-height="1019"
     inkscape:window-x="0"
     inkscape:window-y="0"
     inkscape:window-maximized="0"
     inkscape:current-layer="svg1" />
  <path
     style="baseline-shift:baseline;display:inline;overflow:visible;vector-effect:none;fill:#000000;stroke:none;stroke-linecap:butt;stroke-linejoin:miter;enable-background:accumulate;stop-color:#000000;stop-opacity:1;opacity:1"
     d="m 12,8 c -2.1972944,0 -4,1.8027056 -4,4 0,2.197294 1.8027056,4 4,4 2.197294,0 4,-1.802706 4,-4 0,-2.1972944 -1.802706,-4 -4,-4 z m 0,2 c 1.116414,0 2,0.883586 2,2 0,1.116414 -0.883586,2 -2,2 -1.116414,0 -2,-0.883586 -2,-2 0,-1.116414 0.883586,-2 2,-2 z"
     id="circle1" />
  <path
     style="baseline-shift:baseline;display:inline;overflow:visible;vector-effect:none;fill:#000000;stroke:none;stroke-linecap:butt;stroke-linejoin:miter;enable-background:accumulate;stop-color:#000000;stop-opacity:1;opacity:1"
     d="M 12,0 C 10.35499,0 9,1.3549904 9,3 v 0.1660156 c -0.00101,0.254014 -0.1544561,0.4708603 -0.3828125,0.578125 A 1.0001,1.0001 0 0 0 8.515625,3.765625 C 8.2697676,3.8741317 7.9909381,3.8226839 7.7988281,3.6347656 L 7.7480469,3.5839844 C 6.5852505,2.4198937 4.6675397,2.4192333 3.5039063,3.5820313 c -1.1647375,1.1634423 -1.1647375,3.0826513 0,4.2460937 l 0.050781,0.050781 c 0.1879183,0.19211 0.239366,0.4709396 0.1308594,0.7167969 a 1.0001,1.0001 0 0 0 -0.023437,0.058594 C 3.5689171,8.9076836 3.3363132,9.0737647 3.0664063,9.0800781 H 3 c -1.6450096,0 -3,1.3549909 -3,2.9999999 0,1.64501 1.3549904,3 3,3 h 0.1660156 c 0.2617534,0.001 0.4925894,0.153942 0.5957032,0.394531 a 1.0001,1.0001 0 0 0 0.00391,0.0098 c 0.1085067,0.245857 0.057059,0.524687 -0.1308594,0.716797 l -0.050781,0.05078 c -1.1640907,1.162796 -1.1647511,3.080507 -0.00195,4.244141 4.574e-4,4.58e-4 0.0015,-4.58e-4 0.00195,0 4.576e-4,4.57e-4 -4.58e-4,0.0015 0,0.002 1.1636335,1.162798 3.0813442,1.162137 4.2441406,-0.002 l 0.050781,-0.05078 c 0.19211,-0.187918 0.4709396,-0.239366 0.7167969,-0.130859 a 1.0001,1.0001 0 0 0 0.058594,0.02344 c 0.2533867,0.09319 0.4194678,0.325796 0.4257812,0.595703 V 21 c 0,1.64501 1.3549909,3 2.9999999,3 1.64501,0 3,-1.35499 3,-3 v -0.166016 c 0.001,-0.261753 0.153942,-0.492589 0.394531,-0.595703 a 1.0001,1.0001 0 0 0 0.0098,-0.0039 c 0.245857,-0.108507 0.524687,-0.05706 0.716797,0.130859 l 0.05078,0.05078 c 1.162796,1.16409 3.080507,1.164751 4.244141,0.002 v -0.002 c 1.162717,-1.162932 1.164293,-3.079012 0.002,-4.242188 l -0.002,-0.002 -0.05078,-0.05078 c -0.187918,-0.19211 -0.239366,-0.47094 -0.130859,-0.716797 a 1.0001,1.0001 0 0 0 0.0039,-0.0098 C 20.421473,15.153941 20.652309,15.001044 20.914062,15 H 21 c 1.64501,0 3,-1.35499 3,-3 0,-1.64501 -1.35499,-3 -3,-3 H 20.833984 C 20.57997,8.9989869 20.363124,8.8455439 20.255859,8.6171875 A 1.0001,1.0001 0 0 0 20.234375,8.515625 C 20.125868,8.2697676 20.177316,7.9909381 20.365234,7.7988281 l 0.05078,-0.050781 c 1.16409,-1.1627964 1.164751,-3.0805072 0.002,-4.2441406 -1.163443,-1.1647375 -3.082652,-1.1647375 -4.246094,0 l -0.05078,0.050781 c -0.19211,0.1879183 -0.47094,0.239366 -0.716797,0.1308594 a 1.0001,1.0001 0 0 0 -0.0098,-0.00391 C 15.153941,3.5785269 15.001044,3.3476909 15,3.0859375 V 3 C 15,1.3549904 13.64501,0 12,0 Z m 0,2 c 0.564129,0 1,0.4358706 1,1 v 0.089844 a 1.0001,1.0001 0 0 0 0,0.00391 c 0.0042,1.0516218 0.636181,2.0056455 1.601563,2.421875 0.98712,0.4329511 2.147151,0.2227487 2.917968,-0.53125 a 1.0001,1.0001 0 0 0 0.0078,-0.00781 l 0.06055,-0.058594 a 1.0001,1.0001 0 0 0 0,-0.00195 c 0.399014,-0.3994581 1.015048,-0.3994581 1.414062,0 a 1.0001,1.0001 0 0 0 0.002,0.00195 c 0.399458,0.399014 0.399458,1.0150486 0,1.4140625 a 1.0001,1.0001 0 0 0 -0.002,0 l -0.05859,0.060547 a 1.0001,1.0001 0 0 0 -0.0078,0.00781 C 18.180133,7.1726541 17.968111,8.335896 18.404297,9.3242188 L 18.320312,8.9199219 V 9 a 1.0001,1.0001 0 0 0 0.08008,0.3945313 C 18.815413,10.362883 19.772639,10.995798 20.826172,11 a 1.0001,1.0001 0 0 0 0.0039,0 H 21 c 0.564129,0 1,0.435871 1,1 0,0.564129 -0.435871,1 -1,1 h -0.08984 a 1.0001,1.0001 0 0 0 -0.0039,0 c -1.051622,0.0042 -2.005645,0.636181 -2.421875,1.601563 -0.432951,0.98712 -0.222749,2.147151 0.53125,2.917968 a 1.0001,1.0001 0 0 0 0.0078,0.0078 l 0.05859,0.06055 a 1.0001,1.0001 0 0 0 0.002,0 c 0.399458,0.399014 0.399458,1.015048 0,1.414062 a 1.0001,1.0001 0 0 0 -0.002,0.002 c -0.399014,0.399458 -1.015048,0.399458 -1.414062,0 a 1.0001,1.0001 0 0 0 0,-0.002 l -0.06055,-0.05859 a 1.0001,1.0001 0 0 0 -0.0078,-0.0078 c -0.770817,-0.753999 -1.930848,-0.964201 -2.917968,-0.53125 -0.965382,0.416229 -1.597369,1.370253 -1.601563,2.421875 a 1.0001,1.0001 0 0 0 0,0.0039 V 21 c 0,0.564129 -0.43587,1 -1,1 -0.564129,0 -1,-0.435871 -1,-1 v -0.08984 a 1.0001,1.0001 0 0 0 0,-0.02344 c -0.02511,-1.073608 -0.707785,-2.023584 -1.7089842,-2.40625 -0.981331,-0.417733 -2.1266706,-0.21213 -2.8906251,0.535156 a 1.0001,1.0001 0 0 0 -0.00781,0.0078 l -0.060547,0.05859 a 1.0001,1.0001 0 0 0 0,0.002 c -0.399014,0.399458 -1.0150486,0.399458 -1.4140625,0 a 1.0001,1.0001 0 0 0 -0.00195,-0.002 c -0.399458,-0.399014 -0.399458,-1.015048 0,-1.414062 a 1.0001,1.0001 0 0 0 0.00195,0 l 0.058594,-0.06055 a 1.0001,1.0001 0 0 0 0.00781,-0.0078 c 0.7539987,-0.770817 0.9642011,-1.930848 0.53125,-2.917968 -0.4162295,-0.965382 -1.3702532,-1.597369 -2.421875,-1.601563 a 1.0001,1.0001 0 0 0 -0.00391,0 H 3 c -0.5641294,0 -1,-0.43587 -1,-1 0,-0.564129 0.4358706,-1 1,-1 h 0.089844 a 1.0001,1.0001 0 0 0 0.023437,0 C 4.1868886,11.054965 5.1368653,10.372293 5.5195312,9.3710938 5.9372641,8.3897628 5.7316606,7.2444232 4.984375,6.4804687 a 1.0001,1.0001 0 0 0 -0.00781,-0.00781 l -0.058594,-0.060547 a 1.0001,1.0001 0 0 0 -0.00195,0 c -0.3994581,-0.399014 -0.3994581,-1.0150486 0,-1.4140625 a 1.0001,1.0001 0 0 0 0.00195,-0.00195 c 0.399014,-0.399458 1.0150486,-0.399458 1.4140625,0 a 1.0001,1.0001 0 0 0 0,0.00195 l 0.060547,0.058594 a 1.0001,1.0001 0 0 0 0.00781,0.00781 c 0.7722635,0.7554135 1.9355054,0.9674363 2.9238282,0.53125 L 8.9199219,5.6796875 H 9 A 1.0001,1.0001 0 0 0 9.3945313,5.5996094 C 10.362883,5.1845865 10.995798,4.2273606 11,3.1738281 a 1.0001,1.0001 0 0 0 0,-0.00391 V 3 c 0,-0.5641294 0.435871,-1 1,-1 z"
     id="path1" />
</svg>
