<?xml version="1.0" encoding="UTF-8" standalone="no"?>
<svg
   width="32"
   height="32"
   viewBox="0 0 24 24"
   fill="none"
   stroke="currentColor"
   stroke-width="2"
   stroke-linecap="round"
   stroke-linejoin="round"
   class="feather feather-volume-x"
   version="1.1"
   id="svg2"
   sodipodi:docname="ds-volume-x-symbolic.svg"
   inkscape:version="1.4.2 (ebf0e940d0, 2025-05-08)"
   xmlns:inkscape="http://www.inkscape.org/namespaces/inkscape"
   xmlns:sodipodi="http://sodipodi.sourceforge.net/DTD/sodipodi-0.dtd"
   xmlns="http://www.w3.org/2000/svg"
   xmlns:svg="http://www.w3.org/2000/svg">
  <defs
     id="defs2" />
  <sodipodi:namedview
     id="namedview2"
     pagecolor="#ffffff"
     bordercolor="#000000"
     borderopacity="0.25"
     inkscape:showpageshadow="2"
     inkscape:pageopacity="0.0"
     inkscape:pagecheckerboard="0"
     inkscape:deskcolor="#d1d1d1"
     inkscape:zoom="24.59375"
     inkscape:cx="15.97967"
     inkscape:cy="16"
     inkscape:window-width="1908"
     inkscape:window-height="1019"
     inkscape:window-x="0"
     inkscape:window-y="0"
     inkscape:window-maximized="0"
     inkscape:current-layer="svg2" />
  <path
     style="baseline-shift:baseline;display:inline;overflow:visible;vector-effect:none;fill:#000000;stroke:none;stroke-linecap:butt;stroke-linejoin:miter;enable-background:accumulate;stop-color:#000000;stop-opacity:1;opacity:1"
     d="M 11.433594,4.0996094 A 1.0001,1.0001 0 0 0 10.375,4.21875 L 5.6484375,8 H 2 A 1.0001,1.0001 0 0 0 1,9 v 6 a 1.0001,1.0001 0 0 0 1,1 H 5.6484375 L 10.375,19.78125 A 1.0001,1.0001 0 0 0 12,19 V 5 A 1.0001,1.0001 0 0 0 11.433594,4.0996094 Z M 10,7.0820312 V 16.917969 L 6.625,14.21875 A 1.0001,1.0001 0 0 0 6,14 H 3 V 10 H 6 A 1.0001,1.0001 0 0 0 6.625,9.78125 Z"
     id="polygon1" />
  <path
     style="baseline-shift:baseline;display:inline;overflow:visible;vector-effect:none;fill:#000000;stroke:none;stroke-linecap:butt;stroke-linejoin:miter;enable-background:accumulate;stop-color:#000000;stop-opacity:1;opacity:1"
     d="m 22.292969,8.2929688 -6,6.0000002 a 1,1 0 0 0 0,1.414062 1,1 0 0 0 1.414062,0 l 6,-5.9999997 a 1,1 0 0 0 0,-1.4140625 1,1 0 0 0 -1.414062,0 z"
     id="line1" />
  <path
     style="baseline-shift:baseline;display:inline;overflow:visible;vector-effect:none;fill:#000000;stroke:none;stroke-linecap:butt;stroke-linejoin:miter;enable-background:accumulate;stop-color:#000000;stop-opacity:1;opacity:1"
     d="m 16.292969,8.2929688 a 1,1 0 0 0 0,1.4140625 l 6,5.9999997 a 1,1 0 0 0 1.414062,0 1,1 0 0 0 0,-1.414062 l -6,-6.0000002 a 1,1 0 0 0 -1.414062,0 z"
     id="line2" />
</svg>
